<svg xmlns="http://www.w3.org/2000/svg" viewBox="0 0 509.69 205.5"><defs><style>.cls-1{fill:#f7931e;stroke:#fff;}.cls-1,.cls-2{stroke-miterlimit:10;}.cls-2{font-size:150px;fill:#f15a24;stroke:red;stroke-width:3px;font-family:Montserrat-ExtraBoldItalic, Montserrat;font-weight:800;font-style:italic;letter-spacing:-0.08em;}.cls-3{letter-spacing:-0.03em;}</style></defs><g id="Layer_1" data-name="Layer 1"><path class="cls-1" d="M727.14,431.76a12.91,12.91,0,0,1-1.56,6.17,20.51,20.51,0,0,1-5.2,5.92,62.89,62.89,0,0,1-9.62,6.24q-6,3.26-14.69,7.15-19.89,8.83-27.56,8.84-8.07,0-8.06-4.68a5.28,5.28,0,0,1,.39-1.82q-4.29,2.21-7.35,3.57a43.08,43.08,0,0,1-5.26,2,24.29,24.29,0,0,1-3.9.84,29.61,29.61,0,0,1-3.38.2q-7,0-7-5.33,0-3.12,2.73-7.41L649.14,434c1.21-1.91,1.82-3.29,1.82-4.16,0-1.13-1.26-1.69-3.77-1.69a20.91,20.91,0,0,1,13.91-4.68q9.09,0,9.1,5.33a8.85,8.85,0,0,1-1.56,4.68l-11.31,17.81,13.26-6.76,6.89-10.92c1.12-1.82,1.69-3.08,1.69-3.77,0-1.13-1.26-1.69-3.77-1.69a21.49,21.49,0,0,1,13.78-4.42q7.41,0,7.41,5.2a8.07,8.07,0,0,1-1.3,4.29l-12,18.72q6.88-3.26,11.57-6.05a50.49,50.49,0,0,0,7.54-5.33,17.57,17.57,0,0,0,4.09-4.94,10.85,10.85,0,0,0,1.24-5,2.48,2.48,0,0,0-1.37-2.47,10,10,0,0,0-4.09-.65q4.94-3.77,13.39-3.77Q727.13,423.7,727.14,431.76Z" transform="translate(-401.65 -287.33)"/><path class="cls-1" d="M731.3,463.22a24.78,24.78,0,0,1-5.07,2,20.93,20.93,0,0,1-5.59.72,11.42,11.42,0,0,1-5.92-1.24,4.55,4.55,0,0,1-2-4.22q0-2.34,2.34-6.11l19-29.64h17.16L734,451.91l18.07-9.23,3.77,8.06Z" transform="translate(-401.65 -287.33)"/><path class="cls-1" d="M731.68,465.43l25.74-40.69H775l-3.38,5.2,10.79-4.81a20.39,20.39,0,0,1,8.45-1.82c5.21,0,7.8,1.86,7.8,5.59a11,11,0,0,1-2,5.72l-10.92,17.16,18.07-8.84,3.51,7.67-25,13a16.86,16.86,0,0,1-5.07,1.82,31.83,31.83,0,0,1-5.85.52q-8.84,0-8.84-5.07c0-1.91.83-4.12,2.47-6.63l10.28-16.12L762,445l-13,20.41Z" transform="translate(-401.65 -287.33)"/><path class="cls-1" d="M839.2,462.83c-1.74.87-3,1.47-3.78,1.82a8.72,8.72,0,0,0-2.14,1.36,18.36,18.36,0,0,0-2.21,2.41q-1.23,1.56-3.84,5.07Q813.07,492.33,791,492.34a18.85,18.85,0,0,1-9.29-2.41,11.42,11.42,0,0,1-5.66-6.17l3.78-2.6q3.12,5.46,11.17,5.46c3.65,0,7.5-1.76,11.58-5.27s8.27-8.82,12.6-15.92c.61-.95,1.31-2.12,2.08-3.51s1.78-3,3-4.81a28.86,28.86,0,0,1-8.12,6.56,19.83,19.83,0,0,1-9.55,2.41q-4.95,0-7.29-2.54a9.88,9.88,0,0,1-2.33-7q0-6.63,5.71-14.56A45.51,45.51,0,0,1,814,428.44a37.4,37.4,0,0,1,17.29-4.35q5.6,0,7.41,3.38l2-2.73H858.3l-17.42,27.17,18.2-8.84,3.78,7.67Zm-4.82-30.94c0-1-.69-1.56-2.08-1.56s-3.29,1-5.72,2.92a60.29,60.29,0,0,0-7.15,6.89,67.46,67.46,0,0,0-6.11,8q-2.6,4-2.6,6.24a1.5,1.5,0,0,0,1.7,1.69,8,8,0,0,0,4.35-1.63,31.08,31.08,0,0,0,4.81-4.09,68.86,68.86,0,0,0,4.74-5.46q2.34-3,4.1-5.66t2.86-4.68A7.59,7.59,0,0,0,834.38,431.89Z" transform="translate(-401.65 -287.33)"/><path class="cls-1" d="M893.14,459.58q-5.71,3.12-9.16,4.81a41.16,41.16,0,0,1-6.05,2.47,21.43,21.43,0,0,1-4.87.91c-1.52.08-3.4.13-5.66.13q-17.28,0-17.29-12.48,0-1.17,1.95-6.11h-2.47l14.56-18.2q7.94-9.89,21.32-9.88a14.64,14.64,0,0,1,8.45,2.47,10.38,10.38,0,0,0-5.91,1.69q-2.53,1.69-2.54,3.9a8.17,8.17,0,0,0,1.37,2.34q1.36,2,2.92,4.55t2.93,5.39a11.86,11.86,0,0,1,1.36,5.14v1.17a5.73,5.73,0,0,1-.13,1.17l12.74-6,3.51,7.54ZM876,451.65a11.51,11.51,0,0,0-1.36-5.27,33.05,33.05,0,0,0-3-4.81c-1.09-1.43-2.08-2.64-3-3.64a6.56,6.56,0,0,1-1.37-1.75L863.5,441a5.8,5.8,0,0,1,4.1,2.34,7.44,7.44,0,0,1,1.62,4.68,7,7,0,0,1-.26,1.69,6,6,0,0,0-4.42-1.69,6.37,6.37,0,0,0-4.55,1.88,6,6,0,0,0-2,4.49q0,7,8.58,7a8.69,8.69,0,0,0,6.76-2.86A9.85,9.85,0,0,0,876,451.65Z" transform="translate(-401.65 -287.33)"/><text class="cls-2" transform="translate(9.45 129)">Jamb<tspan class="cls-3" x="402.6" y="0">o</tspan></text></g></svg>